<?xml version="1.0" encoding="utf-8"?>
<!-- Generator: Adobe Illustrator 19.0.0, SVG Export Plug-In . SVG Version: 6.00 Build 0)  -->
<svg version="1.1" id="Warstwa_1" xmlns="http://www.w3.org/2000/svg" xmlns:xlink="http://www.w3.org/1999/xlink" x="0px" y="0px"
	 viewBox="20 -19 69 69" style="enable-background:new 20 -19 69 69;" xml:space="preserve">
<style type="text/css">
	.st0{fill:#4A61D0;}
</style>
<path class="st0" d="M46.8,8.7c4.3,0.9,8.1,3.2,12,5c0.8,0.4,1.4,0.4,2.2,0.1c3.8-1.3,7.7-2.6,11.5-3.9c1.1-0.4,2.2-0.6,3.4-0.4
	c1.1,0.2,1.6,1,1.1,2.1c-0.5,1.2-1.5,2-2.7,2.4c-2.6,0.9-5.3,1.8-7.9,2.7c-5.9,2-11.8,4-17.7,5.9c-1.9,0.6-3.9,1-5.9,0.8
	c-1.7-0.1-3.2-0.7-4.3-2c-1.2-1.3-2.4-2.5-3.6-3.8c-0.1-0.1-0.2-0.2-0.3-0.3c0,0,0-0.1,0-0.1c0.3-0.1,0.6-0.3,0.9-0.4
	c1-0.5,2-0.5,3,0c1.5,0.7,2.9,1.5,4.2,2.5c0.2,0.2,0.4,0.2,0.7,0.1c1.8-0.5,3.6-1,5.4-1.6c0.8-0.2,1.6-0.5,2.5-0.8
	c-0.2-0.2-0.4-0.4-0.5-0.6c-1.9-2.2-3.8-4.4-5.8-6.6c-0.2-0.2-0.2-0.5,0-0.7c0.3-0.2,0.6-0.4,0.9-0.6C46.3,8.7,46.6,8.7,46.8,8.7z
	 M87.4,16.1c0-17.3-14.1-31.3-31.3-31.3S24.7-1.2,24.7,16.1c0,17.3,14.1,31.3,31.3,31.3S87.4,33.4,87.4,16.1z M83.4,16.1
	c0,15.1-12.3,27.3-27.3,27.3c-15.1,0-27.3-12.3-27.3-27.3C28.7,1,41-11.2,56-11.2C71.1-11.2,83.4,1,83.4,16.1z"/>
</svg>
