<?xml version="1.0" encoding="utf-8"?>
<!-- Generator: Adobe Illustrator 19.0.0, SVG Export Plug-In . SVG Version: 6.00 Build 0)  -->
<svg version="1.1" id="Warstwa_1" xmlns="http://www.w3.org/2000/svg" xmlns:xlink="http://www.w3.org/1999/xlink" x="0px" y="0px"
	 viewBox="20 -19 69 69" style="enable-background:new 20 -19 69 69;" xml:space="preserve">
<style type="text/css">
	.st0{fill:#808080;}
</style>
<path id="XMLID_756_" class="st0" d="M54.2-19C35.4-19,20-3.6,20,15.2s15.4,34.2,34.2,34.2S88.4,34,88.4,15.2S73.1-19,54.2-19z
	 M61.1,43.2V28H47.4v15.1c-12.6-3-21.9-14.3-21.9-27.9c0-15.9,12.9-28.8,28.8-28.8S83-0.6,83,15.2C83,28.8,73.7,40.1,61.1,43.2z
	 M62.8,9.9c0,4.6-3.8,8.5-8.5,8.5s-8.5-3.8-8.5-8.5s3.8-8.5,8.5-8.5C58.9,1.5,62.8,5.2,62.8,9.9z"/>
<path class="st0" d="M54.2,50c7.4,0,14.1-3,18.9-7.8c-0.4-10.4-8.9-18.7-19.3-18.7c-10.2,0-18.6,7.9-19.3,17.9
	C39.4,46.7,46.4,50,54.2,50z"/>
</svg>
